<?xml version="1.0" standalone="no"?>

<svg version="1.0" xmlns="http://www.w3.org/2000/svg" width="1024.000000pt" height="1024.000000pt" viewBox="0 0 1024.000000 1024.000000" preserveAspectRatio="xMidYMid meet">
<metadata>
Created by potrace 1.15, written by Peter Selinger 2001-2017
</metadata>
<g transform="translate(0.000000,1024.000000) scale(0.100000,-0.100000)" fill="#000000" stroke="none">
<path d="M4803 6933 c-98 -119 -314 -383 -481 -587 -374 -457 -349 -429 -364&#xA;-424 -7 3 -79 85 -160 183 -191 231 -222 263 -288 294 -81 38 -155 34 -460&#xA;-27 -219 -44 -591 -117 -1230 -241 -820 -159 -805 -156 -841 -197 -47 -54 -52&#xA;-81 -52 -265 1 -195 8 -231 54 -275 28 -27 36 -29 102 -28 40 0 160 17 267 38&#xA;107 20 290 55 405 76 116 22 296 56 400 75 105 20 298 56 430 81 132 24 310&#xA;58 395 75 229 46 268 36 385 -98 143 -162 185 -215 185 -232 0 -9 -412 -532&#xA;-915 -1161 -503 -629 -915 -1148 -915 -1152 0 -5 185 -7 412 -6 l412 3 77 95&#xA;c41 52 163 205 269 340 312 394 418 528 515 650 50 63 190 239 310 390 119&#xA;151 225 281 233 288 40 32 54 19 231 -218 95 -126 190 -244 212 -261 22 -17&#xA;62 -40 89 -50 87 -33 84 -33 830 82 179 27 370 57 425 65 55 8 154 24 220 34&#xA;66 11 228 35 360 55 132 19 371 55 530 80 160 24 393 60 519 79 238 37 278 36&#xA;257 -2 -5 -9 -95 -131 -200 -271 -105 -140 -189 -256 -187 -258 5 -5 142 53&#xA;381 162 105 48 237 109 295 135 523 237 1171 543 1211 571 38 27 52 61 38 92&#xA;-17 38 3 30 -519 217 -308 111 -837 298 -1205 426 -148 52 -280 99 -293 104&#xA;-52 23 -54 10 -7 -42 153 -167 280 -303 350 -376 86 -90 96 -107 68 -116 -23&#xA;-6 -209 -34 -688 -101 -214 -30 -640 -90 -945 -135 -1123 -163 -1050 -153&#xA;-1103 -141 -27 6 -65 23 -85 38 -69 50 -332 374 -332 408 0 19 278 368 729&#xA;915 180 217 661 818 661 824 0 3 -182 6 -404 6 l-405 0 -178 -217z"></path>
</g>
</svg>